<mxfile host="app.diagrams.net" modified="2023-08-26T01:04:04.058Z" agent="Mozilla/5.0 (Windows NT 10.0; Win64; x64) AppleWebKit/537.36 (KHTML, like Gecko) Chrome/116.0.0.0 Safari/537.36" etag="doqOzeNhPtQmVVOInYam" version="21.6.9" type="device">
  <diagram id="prtHgNgQTEPvFCAcTncT" name="Page-1">
    <mxGraphModel dx="713" dy="814" grid="1" gridSize="10" guides="1" tooltips="1" connect="1" arrows="1" fold="1" page="1" pageScale="1" pageWidth="827" pageHeight="1169" math="0" shadow="0">
      <root>
        <mxCell id="0" />
        <mxCell id="1" parent="0" />
        <mxCell id="dNxyNK7c78bLwvsdeMH5-19" value="Registro de subsidios" style="swimlane;html=1;childLayout=stackLayout;resizeParent=1;resizeParentMax=0;horizontal=0;startSize=20;horizontalStack=0;" parent="1" vertex="1">
          <mxGeometry x="23" y="430" width="820" height="290" as="geometry" />
        </mxCell>
        <mxCell id="dNxyNK7c78bLwvsdeMH5-20" value="Sistema" style="swimlane;html=1;startSize=20;horizontal=0;" parent="dNxyNK7c78bLwvsdeMH5-19" vertex="1">
          <mxGeometry x="20" width="800" height="170" as="geometry" />
        </mxCell>
        <mxCell id="vhdVRVxcqA5YSKfZQhdU-41" style="edgeStyle=orthogonalEdgeStyle;rounded=0;orthogonalLoop=1;jettySize=auto;html=1;entryX=1;entryY=0.5;entryDx=0;entryDy=0;" parent="dNxyNK7c78bLwvsdeMH5-20" source="vhdVRVxcqA5YSKfZQhdU-45" edge="1">
          <mxGeometry relative="1" as="geometry">
            <mxPoint x="150" y="90" as="targetPoint" />
          </mxGeometry>
        </mxCell>
        <mxCell id="vhdVRVxcqA5YSKfZQhdU-42" value="NO" style="edgeLabel;html=1;align=center;verticalAlign=middle;resizable=0;points=[];" parent="vhdVRVxcqA5YSKfZQhdU-41" vertex="1" connectable="0">
          <mxGeometry x="-0.1951" y="1" relative="1" as="geometry">
            <mxPoint as="offset" />
          </mxGeometry>
        </mxCell>
        <mxCell id="vhdVRVxcqA5YSKfZQhdU-43" style="edgeStyle=orthogonalEdgeStyle;rounded=0;orthogonalLoop=1;jettySize=auto;html=1;entryX=0;entryY=0.5;entryDx=0;entryDy=0;" parent="dNxyNK7c78bLwvsdeMH5-20" source="vhdVRVxcqA5YSKfZQhdU-45" target="vhdVRVxcqA5YSKfZQhdU-52" edge="1">
          <mxGeometry relative="1" as="geometry">
            <mxPoint x="390" y="90" as="targetPoint" />
          </mxGeometry>
        </mxCell>
        <mxCell id="vhdVRVxcqA5YSKfZQhdU-44" value="SI" style="edgeLabel;html=1;align=center;verticalAlign=middle;resizable=0;points=[];" parent="vhdVRVxcqA5YSKfZQhdU-43" vertex="1" connectable="0">
          <mxGeometry x="-0.4864" y="1" relative="1" as="geometry">
            <mxPoint as="offset" />
          </mxGeometry>
        </mxCell>
        <mxCell id="vhdVRVxcqA5YSKfZQhdU-45" value="los campos estan debidamente diligenciados?" style="rhombus;whiteSpace=wrap;html=1;" parent="dNxyNK7c78bLwvsdeMH5-20" vertex="1">
          <mxGeometry x="200" y="45" width="150" height="90" as="geometry" />
        </mxCell>
        <mxCell id="vhdVRVxcqA5YSKfZQhdU-46" value="mensaje de alerta" style="shape=document;whiteSpace=wrap;html=1;boundedLbl=1;" parent="dNxyNK7c78bLwvsdeMH5-20" vertex="1">
          <mxGeometry x="40" y="75" width="110" height="30" as="geometry" />
        </mxCell>
        <mxCell id="vhdVRVxcqA5YSKfZQhdU-52" value="ingresa en db los datos" style="rounded=0;whiteSpace=wrap;html=1;" parent="dNxyNK7c78bLwvsdeMH5-20" vertex="1">
          <mxGeometry x="400" y="60" width="120" height="60" as="geometry" />
        </mxCell>
        <mxCell id="vhdVRVxcqA5YSKfZQhdU-54" value="mensaje de de validacion" style="shape=document;whiteSpace=wrap;html=1;boundedLbl=1;" parent="dNxyNK7c78bLwvsdeMH5-20" vertex="1">
          <mxGeometry x="570" y="70" width="110" height="40" as="geometry" />
        </mxCell>
        <mxCell id="vhdVRVxcqA5YSKfZQhdU-51" style="edgeStyle=orthogonalEdgeStyle;rounded=0;orthogonalLoop=1;jettySize=auto;html=1;entryX=0;entryY=0.5;entryDx=0;entryDy=0;" parent="dNxyNK7c78bLwvsdeMH5-20" source="vhdVRVxcqA5YSKfZQhdU-52" target="vhdVRVxcqA5YSKfZQhdU-54" edge="1">
          <mxGeometry relative="1" as="geometry" />
        </mxCell>
        <mxCell id="vhdVRVxcqA5YSKfZQhdU-55" value="" style="ellipse;whiteSpace=wrap;html=1;strokeColor=#000000;fillColor=#000000;" parent="dNxyNK7c78bLwvsdeMH5-20" vertex="1">
          <mxGeometry x="740" y="70" width="40" height="40" as="geometry" />
        </mxCell>
        <mxCell id="vhdVRVxcqA5YSKfZQhdU-53" style="edgeStyle=orthogonalEdgeStyle;rounded=0;orthogonalLoop=1;jettySize=auto;html=1;entryX=0;entryY=0.5;entryDx=0;entryDy=0;" parent="dNxyNK7c78bLwvsdeMH5-20" source="vhdVRVxcqA5YSKfZQhdU-54" target="vhdVRVxcqA5YSKfZQhdU-55" edge="1">
          <mxGeometry relative="1" as="geometry" />
        </mxCell>
        <mxCell id="vhdVRVxcqA5YSKfZQhdU-57" value="" style="ellipse;whiteSpace=wrap;html=1;" parent="dNxyNK7c78bLwvsdeMH5-20" vertex="1">
          <mxGeometry x="47" y="215" width="40" height="40" as="geometry" />
        </mxCell>
        <mxCell id="vhdVRVxcqA5YSKfZQhdU-58" value="digita formulario" style="shape=parallelogram;perimeter=parallelogramPerimeter;whiteSpace=wrap;html=1;fixedSize=1;" parent="dNxyNK7c78bLwvsdeMH5-20" vertex="1">
          <mxGeometry x="120" y="222.5" width="120" height="25" as="geometry" />
        </mxCell>
        <mxCell id="vhdVRVxcqA5YSKfZQhdU-59" style="edgeStyle=orthogonalEdgeStyle;rounded=0;orthogonalLoop=1;jettySize=auto;html=1;entryX=0.5;entryY=1;entryDx=0;entryDy=0;exitX=0.75;exitY=0;exitDx=0;exitDy=0;" parent="dNxyNK7c78bLwvsdeMH5-20" source="vhdVRVxcqA5YSKfZQhdU-58" target="vhdVRVxcqA5YSKfZQhdU-45" edge="1">
          <mxGeometry relative="1" as="geometry">
            <Array as="points">
              <mxPoint x="210" y="195" />
              <mxPoint x="275" y="195" />
            </Array>
          </mxGeometry>
        </mxCell>
        <mxCell id="vhdVRVxcqA5YSKfZQhdU-60" style="edgeStyle=orthogonalEdgeStyle;rounded=0;orthogonalLoop=1;jettySize=auto;html=1;entryX=0.5;entryY=0;entryDx=0;entryDy=0;" parent="dNxyNK7c78bLwvsdeMH5-20" source="vhdVRVxcqA5YSKfZQhdU-46" target="vhdVRVxcqA5YSKfZQhdU-58" edge="1">
          <mxGeometry relative="1" as="geometry">
            <Array as="points">
              <mxPoint x="95" y="150" />
              <mxPoint x="180" y="150" />
            </Array>
          </mxGeometry>
        </mxCell>
        <mxCell id="vhdVRVxcqA5YSKfZQhdU-56" style="edgeStyle=orthogonalEdgeStyle;rounded=0;orthogonalLoop=1;jettySize=auto;html=1;" parent="dNxyNK7c78bLwvsdeMH5-20" source="vhdVRVxcqA5YSKfZQhdU-57" target="vhdVRVxcqA5YSKfZQhdU-58" edge="1">
          <mxGeometry relative="1" as="geometry" />
        </mxCell>
        <mxCell id="dNxyNK7c78bLwvsdeMH5-21" value="Administrador" style="swimlane;html=1;startSize=20;horizontal=0;" parent="dNxyNK7c78bLwvsdeMH5-19" vertex="1">
          <mxGeometry x="20" y="170" width="800" height="120" as="geometry" />
        </mxCell>
        <mxCell id="vhdVRVxcqA5YSKfZQhdU-7" value="inscripciÃ³n de persona" style="swimlane;html=1;childLayout=stackLayout;resizeParent=1;resizeParentMax=0;horizontal=0;startSize=20;horizontalStack=0;" parent="1" vertex="1">
          <mxGeometry x="23" y="130" width="1260" height="270" as="geometry" />
        </mxCell>
        <mxCell id="vhdVRVxcqA5YSKfZQhdU-8" value="Sistema" style="swimlane;html=1;startSize=20;horizontal=0;" parent="vhdVRVxcqA5YSKfZQhdU-7" vertex="1">
          <mxGeometry x="20" width="1240" height="150" as="geometry" />
        </mxCell>
        <mxCell id="vhdVRVxcqA5YSKfZQhdU-20" style="edgeStyle=orthogonalEdgeStyle;rounded=0;orthogonalLoop=1;jettySize=auto;html=1;entryX=1;entryY=0.5;entryDx=0;entryDy=0;" parent="vhdVRVxcqA5YSKfZQhdU-8" source="vhdVRVxcqA5YSKfZQhdU-18" edge="1">
          <mxGeometry relative="1" as="geometry">
            <mxPoint x="150" y="65" as="targetPoint" />
          </mxGeometry>
        </mxCell>
        <mxCell id="vhdVRVxcqA5YSKfZQhdU-24" value="NO" style="edgeLabel;html=1;align=center;verticalAlign=middle;resizable=0;points=[];" parent="vhdVRVxcqA5YSKfZQhdU-20" vertex="1" connectable="0">
          <mxGeometry x="-0.1951" y="1" relative="1" as="geometry">
            <mxPoint as="offset" />
          </mxGeometry>
        </mxCell>
        <mxCell id="vhdVRVxcqA5YSKfZQhdU-21" style="edgeStyle=orthogonalEdgeStyle;rounded=0;orthogonalLoop=1;jettySize=auto;html=1;" parent="vhdVRVxcqA5YSKfZQhdU-8" source="vhdVRVxcqA5YSKfZQhdU-18" edge="1">
          <mxGeometry relative="1" as="geometry">
            <mxPoint x="390" y="65" as="targetPoint" />
          </mxGeometry>
        </mxCell>
        <mxCell id="vhdVRVxcqA5YSKfZQhdU-25" value="SI" style="edgeLabel;html=1;align=center;verticalAlign=middle;resizable=0;points=[];" parent="vhdVRVxcqA5YSKfZQhdU-21" vertex="1" connectable="0">
          <mxGeometry x="-0.4864" y="1" relative="1" as="geometry">
            <mxPoint as="offset" />
          </mxGeometry>
        </mxCell>
        <mxCell id="vhdVRVxcqA5YSKfZQhdU-18" value="los campos estan debidamente diligenciados?" style="rhombus;whiteSpace=wrap;html=1;" parent="vhdVRVxcqA5YSKfZQhdU-8" vertex="1">
          <mxGeometry x="189" y="20" width="150" height="90" as="geometry" />
        </mxCell>
        <mxCell id="vhdVRVxcqA5YSKfZQhdU-22" value="mensaje de alerta" style="shape=document;whiteSpace=wrap;html=1;boundedLbl=1;" parent="vhdVRVxcqA5YSKfZQhdU-8" vertex="1">
          <mxGeometry x="40" y="50" width="110" height="30" as="geometry" />
        </mxCell>
        <mxCell id="vhdVRVxcqA5YSKfZQhdU-28" style="edgeStyle=orthogonalEdgeStyle;rounded=0;orthogonalLoop=1;jettySize=auto;html=1;entryX=0.5;entryY=0;entryDx=0;entryDy=0;" parent="vhdVRVxcqA5YSKfZQhdU-8" source="vhdVRVxcqA5YSKfZQhdU-26" target="vhdVRVxcqA5YSKfZQhdU-27" edge="1">
          <mxGeometry relative="1" as="geometry" />
        </mxCell>
        <mxCell id="vhdVRVxcqA5YSKfZQhdU-26" value="valida usuario en base de datos" style="rounded=0;whiteSpace=wrap;html=1;" parent="vhdVRVxcqA5YSKfZQhdU-8" vertex="1">
          <mxGeometry x="390" y="50" width="120" height="30" as="geometry" />
        </mxCell>
        <mxCell id="vhdVRVxcqA5YSKfZQhdU-35" style="edgeStyle=orthogonalEdgeStyle;rounded=0;orthogonalLoop=1;jettySize=auto;html=1;entryX=0;entryY=0.5;entryDx=0;entryDy=0;" parent="vhdVRVxcqA5YSKfZQhdU-8" source="vhdVRVxcqA5YSKfZQhdU-27" target="vhdVRVxcqA5YSKfZQhdU-34" edge="1">
          <mxGeometry relative="1" as="geometry" />
        </mxCell>
        <mxCell id="vhdVRVxcqA5YSKfZQhdU-27" value="existe un usuario registrado con las mismas credenciales?" style="rhombus;whiteSpace=wrap;html=1;" parent="vhdVRVxcqA5YSKfZQhdU-8" vertex="1">
          <mxGeometry x="620" y="40" width="120" height="95" as="geometry" />
        </mxCell>
        <mxCell id="vhdVRVxcqA5YSKfZQhdU-37" style="edgeStyle=orthogonalEdgeStyle;rounded=0;orthogonalLoop=1;jettySize=auto;html=1;entryX=0;entryY=0.5;entryDx=0;entryDy=0;" parent="vhdVRVxcqA5YSKfZQhdU-8" source="vhdVRVxcqA5YSKfZQhdU-34" target="vhdVRVxcqA5YSKfZQhdU-36" edge="1">
          <mxGeometry relative="1" as="geometry" />
        </mxCell>
        <mxCell id="vhdVRVxcqA5YSKfZQhdU-34" value="realiza registro de usuario" style="rounded=0;whiteSpace=wrap;html=1;" parent="vhdVRVxcqA5YSKfZQhdU-8" vertex="1">
          <mxGeometry x="790" y="57.5" width="120" height="60" as="geometry" />
        </mxCell>
        <mxCell id="vhdVRVxcqA5YSKfZQhdU-40" style="edgeStyle=orthogonalEdgeStyle;rounded=0;orthogonalLoop=1;jettySize=auto;html=1;entryX=0;entryY=0.5;entryDx=0;entryDy=0;" parent="vhdVRVxcqA5YSKfZQhdU-8" source="vhdVRVxcqA5YSKfZQhdU-36" target="vhdVRVxcqA5YSKfZQhdU-39" edge="1">
          <mxGeometry relative="1" as="geometry" />
        </mxCell>
        <mxCell id="vhdVRVxcqA5YSKfZQhdU-36" value="mensaje de de validacion" style="shape=document;whiteSpace=wrap;html=1;boundedLbl=1;" parent="vhdVRVxcqA5YSKfZQhdU-8" vertex="1">
          <mxGeometry x="970" y="67.5" width="110" height="40" as="geometry" />
        </mxCell>
        <mxCell id="vhdVRVxcqA5YSKfZQhdU-39" value="" style="ellipse;whiteSpace=wrap;html=1;strokeColor=#000000;fillColor=#000000;" parent="vhdVRVxcqA5YSKfZQhdU-8" vertex="1">
          <mxGeometry x="1160" y="67.5" width="40" height="40" as="geometry" />
        </mxCell>
        <mxCell id="vhdVRVxcqA5YSKfZQhdU-11" value="Persona" style="swimlane;html=1;startSize=20;horizontal=0;" parent="vhdVRVxcqA5YSKfZQhdU-7" vertex="1">
          <mxGeometry x="20" y="150" width="1240" height="120" as="geometry" />
        </mxCell>
        <mxCell id="vhdVRVxcqA5YSKfZQhdU-29" style="edgeStyle=orthogonalEdgeStyle;rounded=0;orthogonalLoop=1;jettySize=auto;html=1;" parent="vhdVRVxcqA5YSKfZQhdU-11" source="vhdVRVxcqA5YSKfZQhdU-10" target="vhdVRVxcqA5YSKfZQhdU-23" edge="1">
          <mxGeometry relative="1" as="geometry" />
        </mxCell>
        <mxCell id="vhdVRVxcqA5YSKfZQhdU-10" value="" style="ellipse;whiteSpace=wrap;html=1;" parent="vhdVRVxcqA5YSKfZQhdU-11" vertex="1">
          <mxGeometry x="47" y="40" width="40" height="40" as="geometry" />
        </mxCell>
        <mxCell id="vhdVRVxcqA5YSKfZQhdU-23" value="digita formulario" style="shape=parallelogram;perimeter=parallelogramPerimeter;whiteSpace=wrap;html=1;fixedSize=1;" parent="vhdVRVxcqA5YSKfZQhdU-11" vertex="1">
          <mxGeometry x="120" y="47.5" width="120" height="25" as="geometry" />
        </mxCell>
        <mxCell id="vhdVRVxcqA5YSKfZQhdU-30" style="edgeStyle=orthogonalEdgeStyle;rounded=0;orthogonalLoop=1;jettySize=auto;html=1;entryX=0.5;entryY=1;entryDx=0;entryDy=0;exitX=0.75;exitY=0;exitDx=0;exitDy=0;" parent="vhdVRVxcqA5YSKfZQhdU-7" source="vhdVRVxcqA5YSKfZQhdU-23" target="vhdVRVxcqA5YSKfZQhdU-18" edge="1">
          <mxGeometry relative="1" as="geometry">
            <Array as="points">
              <mxPoint x="230" y="170" />
              <mxPoint x="284" y="170" />
            </Array>
          </mxGeometry>
        </mxCell>
        <mxCell id="vhdVRVxcqA5YSKfZQhdU-31" style="edgeStyle=orthogonalEdgeStyle;rounded=0;orthogonalLoop=1;jettySize=auto;html=1;entryX=0.5;entryY=0;entryDx=0;entryDy=0;" parent="vhdVRVxcqA5YSKfZQhdU-7" source="vhdVRVxcqA5YSKfZQhdU-22" target="vhdVRVxcqA5YSKfZQhdU-23" edge="1">
          <mxGeometry relative="1" as="geometry" />
        </mxCell>
        <mxCell id="vhdVRVxcqA5YSKfZQhdU-32" style="edgeStyle=orthogonalEdgeStyle;rounded=0;orthogonalLoop=1;jettySize=auto;html=1;entryX=0.5;entryY=1;entryDx=0;entryDy=0;exitX=0;exitY=0.5;exitDx=0;exitDy=0;" parent="vhdVRVxcqA5YSKfZQhdU-7" source="vhdVRVxcqA5YSKfZQhdU-27" target="vhdVRVxcqA5YSKfZQhdU-23" edge="1">
          <mxGeometry relative="1" as="geometry">
            <Array as="points">
              <mxPoint x="590" y="88" />
              <mxPoint x="590" y="240" />
              <mxPoint x="200" y="240" />
            </Array>
          </mxGeometry>
        </mxCell>
        <mxCell id="vhdVRVxcqA5YSKfZQhdU-33" value="SI" style="edgeLabel;html=1;align=center;verticalAlign=middle;resizable=0;points=[];" parent="vhdVRVxcqA5YSKfZQhdU-32" vertex="1" connectable="0">
          <mxGeometry x="-0.9162" y="-4" relative="1" as="geometry">
            <mxPoint as="offset" />
          </mxGeometry>
        </mxCell>
        <mxCell id="vhdVRVxcqA5YSKfZQhdU-12" value="afiliacion de usuario a subsidio&lt;br&gt;" style="swimlane;html=1;childLayout=stackLayout;resizeParent=1;resizeParentMax=0;horizontal=0;startSize=20;horizontalStack=0;" parent="1" vertex="1">
          <mxGeometry x="20" y="760" width="1780" height="300" as="geometry" />
        </mxCell>
        <mxCell id="vhdVRVxcqA5YSKfZQhdU-13" value="Sistema" style="swimlane;html=1;startSize=20;horizontal=0;" parent="vhdVRVxcqA5YSKfZQhdU-12" vertex="1">
          <mxGeometry x="20" width="1760" height="180" as="geometry" />
        </mxCell>
        <mxCell id="9ZfGqdIeB8x-_xnhr8hX-1" style="edgeStyle=orthogonalEdgeStyle;rounded=0;orthogonalLoop=1;jettySize=auto;html=1;entryX=0;entryY=0.5;entryDx=0;entryDy=0;" edge="1" parent="vhdVRVxcqA5YSKfZQhdU-13" source="vhdVRVxcqA5YSKfZQhdU-79" target="vhdVRVxcqA5YSKfZQhdU-80">
          <mxGeometry relative="1" as="geometry" />
        </mxCell>
        <mxCell id="vhdVRVxcqA5YSKfZQhdU-79" value="" style="ellipse;whiteSpace=wrap;html=1;" parent="vhdVRVxcqA5YSKfZQhdU-13" vertex="1">
          <mxGeometry x="43" y="70" width="40" height="40" as="geometry" />
        </mxCell>
        <mxCell id="vhdVRVxcqA5YSKfZQhdU-80" value="se visualiza listado de subsidios" style="rounded=0;whiteSpace=wrap;html=1;" parent="vhdVRVxcqA5YSKfZQhdU-13" vertex="1">
          <mxGeometry x="143" y="75" width="137" height="30" as="geometry" />
        </mxCell>
        <mxCell id="9ZfGqdIeB8x-_xnhr8hX-10" style="edgeStyle=orthogonalEdgeStyle;rounded=0;orthogonalLoop=1;jettySize=auto;html=1;entryX=1;entryY=0.75;entryDx=0;entryDy=0;exitX=0.5;exitY=0;exitDx=0;exitDy=0;" edge="1" parent="vhdVRVxcqA5YSKfZQhdU-13" source="9ZfGqdIeB8x-_xnhr8hX-13" target="9ZfGqdIeB8x-_xnhr8hX-9">
          <mxGeometry relative="1" as="geometry">
            <mxPoint x="513" y="45" as="sourcePoint" />
            <Array as="points">
              <mxPoint x="705" y="30" />
              <mxPoint x="613" y="30" />
              <mxPoint x="613" y="48" />
              <mxPoint x="423" y="48" />
            </Array>
          </mxGeometry>
        </mxCell>
        <mxCell id="9ZfGqdIeB8x-_xnhr8hX-15" value="NO" style="edgeLabel;html=1;align=center;verticalAlign=middle;resizable=0;points=[];" vertex="1" connectable="0" parent="9ZfGqdIeB8x-_xnhr8hX-10">
          <mxGeometry x="-0.7408" y="-1" relative="1" as="geometry">
            <mxPoint x="49" y="8" as="offset" />
          </mxGeometry>
        </mxCell>
        <mxCell id="9ZfGqdIeB8x-_xnhr8hX-11" style="edgeStyle=orthogonalEdgeStyle;rounded=0;orthogonalLoop=1;jettySize=auto;html=1;entryX=0.5;entryY=0;entryDx=0;entryDy=0;" edge="1" parent="vhdVRVxcqA5YSKfZQhdU-13" source="9ZfGqdIeB8x-_xnhr8hX-9" target="vhdVRVxcqA5YSKfZQhdU-80">
          <mxGeometry relative="1" as="geometry" />
        </mxCell>
        <mxCell id="9ZfGqdIeB8x-_xnhr8hX-9" value="mensaje de alerta" style="shape=document;whiteSpace=wrap;html=1;boundedLbl=1;" vertex="1" parent="vhdVRVxcqA5YSKfZQhdU-13">
          <mxGeometry x="313" y="10" width="110" height="50" as="geometry" />
        </mxCell>
        <mxCell id="9ZfGqdIeB8x-_xnhr8hX-14" style="edgeStyle=orthogonalEdgeStyle;rounded=0;orthogonalLoop=1;jettySize=auto;html=1;entryX=0;entryY=0.5;entryDx=0;entryDy=0;" edge="1" parent="vhdVRVxcqA5YSKfZQhdU-13" source="9ZfGqdIeB8x-_xnhr8hX-12" target="9ZfGqdIeB8x-_xnhr8hX-13">
          <mxGeometry relative="1" as="geometry" />
        </mxCell>
        <mxCell id="9ZfGqdIeB8x-_xnhr8hX-12" value="validacion de fechas de afiliacion" style="rounded=0;whiteSpace=wrap;html=1;" vertex="1" parent="vhdVRVxcqA5YSKfZQhdU-13">
          <mxGeometry x="403" y="85" width="167" height="40" as="geometry" />
        </mxCell>
        <mxCell id="9ZfGqdIeB8x-_xnhr8hX-18" style="edgeStyle=orthogonalEdgeStyle;rounded=0;orthogonalLoop=1;jettySize=auto;html=1;entryX=0;entryY=0.5;entryDx=0;entryDy=0;" edge="1" parent="vhdVRVxcqA5YSKfZQhdU-13" source="9ZfGqdIeB8x-_xnhr8hX-13" target="9ZfGqdIeB8x-_xnhr8hX-29">
          <mxGeometry relative="1" as="geometry">
            <mxPoint x="823" y="112" as="targetPoint" />
          </mxGeometry>
        </mxCell>
        <mxCell id="9ZfGqdIeB8x-_xnhr8hX-22" value="SI" style="edgeLabel;html=1;align=center;verticalAlign=middle;resizable=0;points=[];" vertex="1" connectable="0" parent="9ZfGqdIeB8x-_xnhr8hX-18">
          <mxGeometry x="-0.3515" y="-1" relative="1" as="geometry">
            <mxPoint as="offset" />
          </mxGeometry>
        </mxCell>
        <mxCell id="9ZfGqdIeB8x-_xnhr8hX-13" value="las solicitud de afiliaciÃ³n es realizada dentro de fechas validas" style="rhombus;whiteSpace=wrap;html=1;" vertex="1" parent="vhdVRVxcqA5YSKfZQhdU-13">
          <mxGeometry x="633" y="40" width="144" height="130" as="geometry" />
        </mxCell>
        <mxCell id="9ZfGqdIeB8x-_xnhr8hX-20" style="edgeStyle=orthogonalEdgeStyle;rounded=0;orthogonalLoop=1;jettySize=auto;html=1;entryX=1.007;entryY=0.056;entryDx=0;entryDy=0;entryPerimeter=0;" edge="1" parent="vhdVRVxcqA5YSKfZQhdU-13" source="9ZfGqdIeB8x-_xnhr8hX-16" target="9ZfGqdIeB8x-_xnhr8hX-9">
          <mxGeometry relative="1" as="geometry">
            <Array as="points">
              <mxPoint x="1261" y="10" />
              <mxPoint x="593" y="10" />
              <mxPoint x="593" y="13" />
              <mxPoint x="424" y="13" />
            </Array>
          </mxGeometry>
        </mxCell>
        <mxCell id="9ZfGqdIeB8x-_xnhr8hX-21" value="NO" style="edgeLabel;html=1;align=center;verticalAlign=middle;resizable=0;points=[];" vertex="1" connectable="0" parent="9ZfGqdIeB8x-_xnhr8hX-20">
          <mxGeometry x="-0.8898" y="3" relative="1" as="geometry">
            <mxPoint x="11" y="24" as="offset" />
          </mxGeometry>
        </mxCell>
        <mxCell id="9ZfGqdIeB8x-_xnhr8hX-24" style="edgeStyle=orthogonalEdgeStyle;rounded=0;orthogonalLoop=1;jettySize=auto;html=1;entryX=0;entryY=0.5;entryDx=0;entryDy=0;" edge="1" parent="vhdVRVxcqA5YSKfZQhdU-13" source="9ZfGqdIeB8x-_xnhr8hX-16" target="9ZfGqdIeB8x-_xnhr8hX-23">
          <mxGeometry relative="1" as="geometry" />
        </mxCell>
        <mxCell id="9ZfGqdIeB8x-_xnhr8hX-16" value="validacion exitosa" style="rhombus;whiteSpace=wrap;html=1;" vertex="1" parent="vhdVRVxcqA5YSKfZQhdU-13">
          <mxGeometry x="1217" y="47" width="87" height="80" as="geometry" />
        </mxCell>
        <mxCell id="9ZfGqdIeB8x-_xnhr8hX-19" style="edgeStyle=orthogonalEdgeStyle;rounded=0;orthogonalLoop=1;jettySize=auto;html=1;entryX=0;entryY=0.5;entryDx=0;entryDy=0;" edge="1" parent="vhdVRVxcqA5YSKfZQhdU-13" source="9ZfGqdIeB8x-_xnhr8hX-17" target="9ZfGqdIeB8x-_xnhr8hX-16">
          <mxGeometry relative="1" as="geometry" />
        </mxCell>
        <mxCell id="9ZfGqdIeB8x-_xnhr8hX-17" value="validacion de informacion de usuario respecto a los requisitos del subsidio" style="rounded=0;whiteSpace=wrap;html=1;" vertex="1" parent="vhdVRVxcqA5YSKfZQhdU-13">
          <mxGeometry x="1033" y="54.5" width="137" height="65" as="geometry" />
        </mxCell>
        <mxCell id="9ZfGqdIeB8x-_xnhr8hX-26" style="edgeStyle=orthogonalEdgeStyle;rounded=0;orthogonalLoop=1;jettySize=auto;html=1;entryX=0.5;entryY=0;entryDx=0;entryDy=0;" edge="1" parent="vhdVRVxcqA5YSKfZQhdU-13" source="9ZfGqdIeB8x-_xnhr8hX-23" target="9ZfGqdIeB8x-_xnhr8hX-25">
          <mxGeometry relative="1" as="geometry" />
        </mxCell>
        <mxCell id="9ZfGqdIeB8x-_xnhr8hX-23" value="se realiza afiliacio del usuario al subsidio" style="rounded=0;whiteSpace=wrap;html=1;" vertex="1" parent="vhdVRVxcqA5YSKfZQhdU-13">
          <mxGeometry x="1360" y="10" width="120" height="37" as="geometry" />
        </mxCell>
        <mxCell id="9ZfGqdIeB8x-_xnhr8hX-28" style="edgeStyle=orthogonalEdgeStyle;rounded=0;orthogonalLoop=1;jettySize=auto;html=1;entryX=0;entryY=0.5;entryDx=0;entryDy=0;" edge="1" parent="vhdVRVxcqA5YSKfZQhdU-13" source="9ZfGqdIeB8x-_xnhr8hX-25" target="9ZfGqdIeB8x-_xnhr8hX-27">
          <mxGeometry relative="1" as="geometry" />
        </mxCell>
        <mxCell id="9ZfGqdIeB8x-_xnhr8hX-25" value="se establese estado de afiliacion como &quot;pendiente&quot;" style="rounded=0;whiteSpace=wrap;html=1;" vertex="1" parent="vhdVRVxcqA5YSKfZQhdU-13">
          <mxGeometry x="1351.5" y="87" width="137" height="50" as="geometry" />
        </mxCell>
        <mxCell id="9ZfGqdIeB8x-_xnhr8hX-35" style="edgeStyle=orthogonalEdgeStyle;rounded=0;orthogonalLoop=1;jettySize=auto;html=1;entryX=0;entryY=0.5;entryDx=0;entryDy=0;" edge="1" parent="vhdVRVxcqA5YSKfZQhdU-13" source="9ZfGqdIeB8x-_xnhr8hX-27" target="9ZfGqdIeB8x-_xnhr8hX-34">
          <mxGeometry relative="1" as="geometry" />
        </mxCell>
        <mxCell id="9ZfGqdIeB8x-_xnhr8hX-27" value="mensaje de confirmaciÃ³n" style="shape=document;whiteSpace=wrap;html=1;boundedLbl=1;" vertex="1" parent="vhdVRVxcqA5YSKfZQhdU-13">
          <mxGeometry x="1543" y="54.5" width="110" height="40" as="geometry" />
        </mxCell>
        <mxCell id="9ZfGqdIeB8x-_xnhr8hX-30" style="edgeStyle=orthogonalEdgeStyle;rounded=0;orthogonalLoop=1;jettySize=auto;html=1;" edge="1" parent="vhdVRVxcqA5YSKfZQhdU-13" source="9ZfGqdIeB8x-_xnhr8hX-29">
          <mxGeometry relative="1" as="geometry">
            <mxPoint x="422" y="20" as="targetPoint" />
            <Array as="points">
              <mxPoint x="907" y="20" />
              <mxPoint x="422" y="20" />
            </Array>
          </mxGeometry>
        </mxCell>
        <mxCell id="9ZfGqdIeB8x-_xnhr8hX-31" value="NO" style="edgeLabel;html=1;align=center;verticalAlign=middle;resizable=0;points=[];" vertex="1" connectable="0" parent="9ZfGqdIeB8x-_xnhr8hX-30">
          <mxGeometry x="-0.9611" y="-1" relative="1" as="geometry">
            <mxPoint as="offset" />
          </mxGeometry>
        </mxCell>
        <mxCell id="9ZfGqdIeB8x-_xnhr8hX-32" style="edgeStyle=orthogonalEdgeStyle;rounded=0;orthogonalLoop=1;jettySize=auto;html=1;entryX=0.003;entryY=0.466;entryDx=0;entryDy=0;entryPerimeter=0;" edge="1" parent="vhdVRVxcqA5YSKfZQhdU-13" source="9ZfGqdIeB8x-_xnhr8hX-29" target="9ZfGqdIeB8x-_xnhr8hX-17">
          <mxGeometry relative="1" as="geometry" />
        </mxCell>
        <mxCell id="9ZfGqdIeB8x-_xnhr8hX-33" value="SI" style="edgeLabel;html=1;align=center;verticalAlign=middle;resizable=0;points=[];" vertex="1" connectable="0" parent="9ZfGqdIeB8x-_xnhr8hX-32">
          <mxGeometry x="-0.5892" y="-1" relative="1" as="geometry">
            <mxPoint as="offset" />
          </mxGeometry>
        </mxCell>
        <mxCell id="9ZfGqdIeB8x-_xnhr8hX-29" value="el usuairo esta&amp;nbsp; afiliado mas de un subsidio subsidios" style="rhombus;whiteSpace=wrap;html=1;" vertex="1" parent="vhdVRVxcqA5YSKfZQhdU-13">
          <mxGeometry x="843" y="50" width="127" height="110" as="geometry" />
        </mxCell>
        <mxCell id="9ZfGqdIeB8x-_xnhr8hX-34" value="" style="ellipse;whiteSpace=wrap;html=1;strokeColor=#000000;fillColor=#000000;" vertex="1" parent="vhdVRVxcqA5YSKfZQhdU-13">
          <mxGeometry x="1703" y="54.5" width="40" height="40" as="geometry" />
        </mxCell>
        <mxCell id="9ZfGqdIeB8x-_xnhr8hX-6" style="edgeStyle=orthogonalEdgeStyle;rounded=0;orthogonalLoop=1;jettySize=auto;html=1;entryX=0.5;entryY=1;entryDx=0;entryDy=0;" edge="1" parent="vhdVRVxcqA5YSKfZQhdU-12" source="9ZfGqdIeB8x-_xnhr8hX-4" target="9ZfGqdIeB8x-_xnhr8hX-12">
          <mxGeometry relative="1" as="geometry">
            <mxPoint x="573" y="85" as="targetPoint" />
          </mxGeometry>
        </mxCell>
        <mxCell id="9ZfGqdIeB8x-_xnhr8hX-8" style="edgeStyle=orthogonalEdgeStyle;rounded=0;orthogonalLoop=1;jettySize=auto;html=1;entryX=0.5;entryY=0;entryDx=0;entryDy=0;" edge="1" parent="vhdVRVxcqA5YSKfZQhdU-12" source="vhdVRVxcqA5YSKfZQhdU-80" target="9ZfGqdIeB8x-_xnhr8hX-3">
          <mxGeometry relative="1" as="geometry" />
        </mxCell>
        <mxCell id="vhdVRVxcqA5YSKfZQhdU-16" value="Persona" style="swimlane;html=1;startSize=20;horizontal=0;" parent="vhdVRVxcqA5YSKfZQhdU-12" vertex="1">
          <mxGeometry x="20" y="180" width="1760" height="120" as="geometry" />
        </mxCell>
        <mxCell id="9ZfGqdIeB8x-_xnhr8hX-7" style="edgeStyle=orthogonalEdgeStyle;rounded=0;orthogonalLoop=1;jettySize=auto;html=1;entryX=0;entryY=0.5;entryDx=0;entryDy=0;" edge="1" parent="vhdVRVxcqA5YSKfZQhdU-16" source="9ZfGqdIeB8x-_xnhr8hX-3" target="9ZfGqdIeB8x-_xnhr8hX-4">
          <mxGeometry relative="1" as="geometry" />
        </mxCell>
        <mxCell id="9ZfGqdIeB8x-_xnhr8hX-3" value="selecciona el subsidio de interes" style="rounded=0;whiteSpace=wrap;html=1;" vertex="1" parent="vhdVRVxcqA5YSKfZQhdU-16">
          <mxGeometry x="143" y="60" width="137" height="30" as="geometry" />
        </mxCell>
        <mxCell id="9ZfGqdIeB8x-_xnhr8hX-4" value="se postula a afiliacion" style="rounded=0;whiteSpace=wrap;html=1;" vertex="1" parent="vhdVRVxcqA5YSKfZQhdU-16">
          <mxGeometry x="418" y="60" width="137" height="30" as="geometry" />
        </mxCell>
        <mxCell id="9ZfGqdIeB8x-_xnhr8hX-36" value="Aprobacion de subsidio" style="swimlane;html=1;childLayout=stackLayout;resizeParent=1;resizeParentMax=0;horizontal=0;startSize=20;horizontalStack=0;" vertex="1" parent="1">
          <mxGeometry x="20" y="1090" width="820" height="290" as="geometry" />
        </mxCell>
        <mxCell id="9ZfGqdIeB8x-_xnhr8hX-37" value="Sistema" style="swimlane;html=1;startSize=20;horizontal=0;" vertex="1" parent="9ZfGqdIeB8x-_xnhr8hX-36">
          <mxGeometry x="20" width="800" height="170" as="geometry" />
        </mxCell>
        <mxCell id="9ZfGqdIeB8x-_xnhr8hX-49" value="" style="ellipse;whiteSpace=wrap;html=1;" vertex="1" parent="9ZfGqdIeB8x-_xnhr8hX-37">
          <mxGeometry x="47" y="65" width="40" height="40" as="geometry" />
        </mxCell>
        <mxCell id="9ZfGqdIeB8x-_xnhr8hX-53" style="edgeStyle=orthogonalEdgeStyle;rounded=0;orthogonalLoop=1;jettySize=auto;html=1;entryX=0;entryY=0.5;entryDx=0;entryDy=0;" edge="1" parent="9ZfGqdIeB8x-_xnhr8hX-37" source="9ZfGqdIeB8x-_xnhr8hX-49">
          <mxGeometry relative="1" as="geometry">
            <mxPoint x="130" y="85" as="targetPoint" />
          </mxGeometry>
        </mxCell>
        <mxCell id="9ZfGqdIeB8x-_xnhr8hX-54" value="Administrador" style="swimlane;html=1;startSize=20;horizontal=0;" vertex="1" parent="9ZfGqdIeB8x-_xnhr8hX-36">
          <mxGeometry x="20" y="170" width="800" height="120" as="geometry" />
        </mxCell>
        <mxCell id="9ZfGqdIeB8x-_xnhr8hX-57" style="edgeStyle=orthogonalEdgeStyle;rounded=0;orthogonalLoop=1;jettySize=auto;html=1;entryX=0.5;entryY=0;entryDx=0;entryDy=0;" edge="1" parent="9ZfGqdIeB8x-_xnhr8hX-36">
          <mxGeometry relative="1" as="geometry">
            <mxPoint x="210.0000000000001" y="111.25" as="sourcePoint" />
            <mxPoint x="210.0000000000001" y="215" as="targetPoint" />
          </mxGeometry>
        </mxCell>
      </root>
    </mxGraphModel>
  </diagram>
</mxfile>
